<?xml version="1.0" standalone="no"?>
<!DOCTYPE svg PUBLIC "-//W3C//DTD SVG 20010904//EN"
 "http://www.w3.org/TR/2001/REC-SVG-20010904/DTD/svg10.dtd">
<svg version="1.0" xmlns="http://www.w3.org/2000/svg"
 width="700.000000pt" height="700.000000pt" viewBox="0 0 700.000000 700.000000"
 preserveAspectRatio="xMidYMid meet">
<metadata>
Created by potrace 1.11, written by Peter Selinger 2001-2013
</metadata>
<g transform="translate(0.000000,700.000000) scale(0.100000,-0.100000)"
fill="#000000" stroke="none">
<path d="M3304 6376 c-160 -94 -337 -219 -476 -335 -43 -36 -76 -66 -74 -68 1
-2 58 -10 125 -18 296 -37 567 -100 896 -211 l229 -76 156 13 c193 17 648 18
795 0 148 -17 369 -56 483 -85 51 -13 92 -21 90 -17 -6 14 -162 152 -243 216
-496 388 -1114 615 -1715 630 l-175 5 -91 -54z"/>
<path d="M3082 6379 c-389 -58 -790 -205 -1077 -394 l-70 -46 50 6 c28 3 190
8 360 11 l310 6 55 52 c87 82 235 197 360 279 134 88 159 106 145 105 -5 0
-65 -8 -133 -19z"/>
<path d="M2544 5778 c-216 -222 -462 -546 -610 -803 l-29 -50 35 21 c214 126
530 281 761 372 277 110 665 222 992 287 121 24 141 31 116 39 -347 123 -610
186 -962 231 -198 25 -177 32 -303 -97z"/>
<path d="M2040 5855 c-221 -27 -253 -37 -327 -97 -503 -408 -844 -944 -988
-1553 -38 -160 -72 -411 -52 -384 2 2 21 29 42 59 223 314 566 642 939 895
105 72 110 77 159 162 104 183 307 478 436 633 39 47 158 182 240 273 l25 27
-185 -1 c-101 -1 -231 -7 -289 -14z"/>
<path d="M4405 5607 c-257 -10 -257 -10 -84 -86 809 -355 1573 -966 1984
-1589 26 -40 50 -70 52 -68 9 9 -31 227 -68 372 -103 409 -302 821 -528 1096
-94 115 -97 118 -161 137 -366 112 -751 157 -1195 138z"/>
<path d="M3506 4978 c-3 -46 -10 -243 -16 -438 -6 -195 -13 -383 -16 -417 l-6
-63 53 0 52 0 -6 403 c-9 518 -14 597 -38 597 -15 0 -18 -13 -23 -82z"/>
<path d="M1586 4599 c-186 -141 -289 -231 -441 -383 -199 -199 -348 -383 -460
-569 l-48 -79 6 -166 c19 -598 249 -1199 641 -1677 49 -58 89 -105 91 -103 2
2 -13 50 -32 107 -43 129 -76 273 -105 461 -20 130 -23 182 -22 490 0 365 4
422 59 730 39 223 116 502 195 710 31 83 148 352 215 498 19 39 31 72 27 72
-4 0 -61 -41 -126 -91z"/>
<path d="M3455 3893 c-100 -22 -148 -62 -172 -142 -14 -46 -17 -99 -18 -301
l0 -244 39 -11 c22 -6 41 -16 43 -21 2 -5 -51 -202 -116 -437 -66 -235 -118
-434 -115 -441 3 -7 -50 -172 -117 -367 -102 -298 -122 -366 -127 -431 -11
-162 11 -114 283 618 143 384 267 706 276 717 15 19 16 16 22 -64 4 -46 12
-194 18 -329 8 -163 16 -250 24 -260 9 -11 14 -127 19 -435 4 -255 11 -421 16
-423 6 -2 10 -40 10 -84 0 -45 2 -79 5 -76 13 13 26 213 39 605 8 232 16 425
19 430 3 5 15 121 27 258 11 138 22 254 23 258 1 4 63 -263 136 -595 74 -332
138 -618 143 -635 12 -44 28 -42 28 2 0 19 5 43 11 53 8 13 -9 110 -76 427
-56 264 -85 422 -81 443 3 18 -17 191 -45 383 -27 192 -49 360 -49 373 0 17 7
26 26 30 l26 7 -4 272 c-3 260 -4 274 -26 319 -26 52 -52 73 -120 94 -45 13
-124 17 -167 7z m92 -184 c79 -30 99 -106 42 -160 -54 -50 -152 -34 -179 30
-23 56 5 112 66 131 39 11 39 11 71 -1z"/>
<path d="M2528 3661 c-240 -9 -440 -19 -444 -23 -17 -17 7 -38 43 -38 21 0
207 -7 413 -15 206 -8 408 -15 448 -15 l72 0 0 55 0 55 -47 -1 c-27 -1 -245
-9 -485 -18z"/>
<path d="M3963 3644 c-2 -7 -3 -29 -1 -49 l3 -38 100 2 c55 1 278 8 495 16
217 8 403 15 413 15 10 0 17 8 17 18 0 17 -12 20 -122 25 -66 4 -221 7 -342 8
-122 1 -297 4 -390 8 -123 4 -170 3 -173 -5z"/>
<path d="M6349 3658 c0 -2 -2 -61 -3 -133 -4 -168 -13 -225 -35 -225 -29 -1
-101 -39 -101 -53 0 -21 30 -30 48 -15 8 7 43 13 79 13 57 0 67 -3 86 -25 21
-24 67 -31 67 -11 0 19 -44 61 -80 77 -27 12 -39 23 -36 33 3 9 6 88 8 176 3
146 1 160 -14 163 -10 2 -18 2 -19 0z"/>
<path d="M6302 3198 c-20 -20 -14 -66 9 -79 33 -17 69 3 69 39 0 33 -16 52
-45 52 -12 0 -26 -5 -33 -12z"/>
<path d="M6191 3121 c-22 -14 13 -60 60 -80 39 -16 39 -17 34 -56 -17 -115
-98 -371 -171 -540 l-36 -83 -55 0 c-62 1 -80 -10 -64 -40 9 -16 18 -19 53
-15 54 5 103 -23 124 -72 9 -23 21 -35 34 -35 11 0 20 2 20 5 0 18 -35 84 -55
105 l-24 25 43 100 c65 154 134 359 159 473 l23 104 53 18 c49 16 70 32 71 53
0 17 -32 19 -49 3 -31 -28 -84 -31 -134 -7 -25 12 -48 28 -51 36 -6 17 -15 18
-35 6z"/>
<path d="M6000 2250 c-24 -24 -25 -43 -4 -64 18 -19 55 -21 72 -4 19 19 14 55
-10 72 -29 20 -34 20 -58 -4z"/>
<path d="M5878 2245 c-10 -11 10 -65 36 -100 l25 -32 -48 -80 c-26 -43 -69
-108 -94 -143 -26 -35 -47 -67 -47 -70 0 -3 8 -10 19 -17 16 -10 25 -3 73 65
30 42 74 110 98 150 36 62 46 72 64 66 11 -3 29 -8 38 -10 9 -3 33 2 53 10 32
14 35 17 23 36 -8 13 -18 18 -28 13 -57 -27 -152 18 -168 80 -8 30 -30 46 -44
32z"/>
<path d="M5581 1606 c-55 -62 -155 -166 -221 -229 -119 -115 -120 -117 -120
-162 0 -30 4 -45 13 -45 16 0 204 192 299 305 89 107 171 215 167 218 -2 2
-11 8 -20 15 -14 11 -30 -3 -118 -102z"/>
<path d="M4988 1587 c-69 -34 -129 -65 -132 -68 -4 -3 3 -28 15 -55 11 -27 25
-59 30 -72 l9 -22 50 25 50 25 -29 59 -30 58 44 21 43 21 37 -232 c20 -128 39
-240 41 -250 5 -16 8 -16 42 4 20 12 40 25 43 28 10 9 -65 514 -76 517 -5 1
-67 -26 -137 -59z"/>
<path d="M1489 1534 c-12 -15 -7 -23 41 -66 30 -27 90 -77 133 -111 56 -43 76
-65 71 -76 -11 -28 -17 -141 -7 -141 21 0 33 27 33 72 0 59 41 111 98 125 27
6 37 14 37 28 0 16 -6 20 -34 18 -18 -1 -46 -11 -62 -22 l-28 -21 -73 57 c-40
31 -98 78 -129 105 -30 26 -58 48 -61 48 -3 0 -12 -7 -19 -16z"/>
<path d="M4710 1486 c-55 -14 -116 -51 -130 -76 -14 -27 -12 -64 6 -111 18
-43 23 -44 89 -19 30 11 31 16 5 71 -26 58 -25 77 5 91 21 9 28 9 39 -3 20
-21 86 -178 80 -192 -2 -7 -24 -20 -49 -30 -25 -11 -45 -23 -45 -28 0 -13 21
-10 50 6 14 8 36 14 50 15 22 0 30 -11 68 -99 46 -109 50 -126 26 -135 -41
-16 -54 -6 -81 54 -14 34 -31 59 -37 56 -6 -3 -28 -10 -48 -17 -21 -7 -38 -16
-38 -20 0 -14 33 -83 49 -101 27 -33 125 -17 198 33 62 43 65 74 16 185 -35
82 -41 89 -75 99 -34 9 -35 11 -22 29 21 29 17 70 -11 126 -25 50 -58 81 -85
79 -8 0 -35 -6 -60 -13z"/>
<path d="M4413 1339 c-84 -15 -173 -82 -173 -131 0 -11 14 -47 31 -79 25 -45
39 -61 65 -69 18 -6 38 -9 44 -5 6 4 -1 -10 -15 -31 -29 -43 -28 -46 24 -154
41 -85 51 -90 138 -70 60 13 126 57 147 98 14 27 13 34 -19 107 -40 92 -53
107 -93 109 l-30 1 21 36 c20 35 20 38 4 80 -40 104 -63 122 -144 108z m29
-129 c21 -49 35 -96 32 -104 -4 -10 -18 -16 -38 -16 -31 0 -33 3 -70 90 -21
50 -36 97 -32 105 3 9 18 15 38 15 32 0 34 -3 70 -90z m108 -239 c48 -112 49
-135 4 -139 -29 -3 -31 0 -76 101 -50 114 -49 137 1 137 27 0 32 -7 71 -99z"/>
<path d="M1988 1292 c-14 -3 -17 -13 -16 -41 2 -61 -54 -131 -105 -131 -13 0
-27 -20 -27 -37 0 -15 85 8 107 29 24 23 24 23 56 4 101 -59 427 -215 517
-247 104 -36 105 -37 112 -74 8 -38 37 -95 49 -95 3 0 10 10 16 23 8 17 6 29
-8 52 -11 17 -19 41 -19 53 0 36 30 92 60 111 15 10 24 23 22 34 -7 36 -57 9
-93 -50 -12 -21 -24 -40 -25 -42 -4 -5 -235 84 -323 125 -40 19 -127 64 -193
100 -94 52 -118 70 -113 83 22 57 13 109 -17 103z"/>
<path d="M1852 1274 c-24 -17 -29 -53 -10 -72 27 -27 88 -3 88 34 0 15 -35 54
-48 54 -4 0 -18 -7 -30 -16z"/>
<path d="M4098 1206 c-54 -19 -79 -46 -42 -42 12 1 37 -52 100 -209 70 -178
81 -212 69 -221 -8 -6 -15 -15 -15 -19 0 -10 37 0 106 31 46 21 55 28 41 33
-14 5 -44 72 -104 229 -47 122 -88 221 -92 221 -3 -1 -32 -11 -63 -23z"/>
<path d="M2854 953 c-7 -13 -7 -25 3 -43 26 -51 7 -145 -36 -172 -22 -14 -28
-38 -10 -38 6 0 29 18 51 39 l39 40 77 -15 c68 -13 264 -43 285 -44 4 0 7 9 7
19 0 22 -12 27 -90 36 -30 4 -101 15 -158 26 -57 10 -105 19 -108 19 -3 0 -3
14 1 30 5 21 0 44 -15 75 -24 50 -30 53 -46 28z"/>
<path d="M2746 864 c-19 -18 -21 -55 -4 -72 19 -19 55 -14 72 10 20 29 20 34
-4 58 -24 24 -43 25 -64 4z"/>
<path d="M3975 769 c-60 -5 -203 -11 -317 -15 -193 -6 -208 -8 -208 -25 0 -20
13 -24 155 -39 175 -19 536 -7 581 19 8 4 7 15 -3 39 -15 36 -8 36 -208 21z"/>
</g>
</svg>
